PathFileType	4	(X/Y/Z)	c:/Users/goper/Files/vsCode/490R/osim_files/C03/C03_fast_06.trc
DataRate	CameraRate	NumFrames	NumMarkers	Units                	OrigDataRate	OrigDataStartFrame	OrigNumFrames
250.00	250.00	4	36	mm	250.0	1879	2147
                Frame#	Time	LPSIS			LASIS			LTH1			LTH2			LTH3			LTH4			LLFE			LMFE			LSH1			LSH2			LSH3			LSH4			LLMAL			LMMAL			LCAL			LMTP5			LTOE			LMTP1			RPSIS			RASIS			RTH1			RTH2			RTH3			RTH4			RLFE			RMFE			RSH1			RSH2			RSH3			RSH4			RLMAL			RMMAL			RCAL			RMTP1			RTOE			RMTP5		
		X1	Y1	Z1	X2	Y2	Z2	X3	Y3	Z3	X4	Y4	Z4	X5	Y5	Z5	X6	Y6	Z6	X7	Y7	Z7	X8	Y8	Z8	X9	Y9	Z9	X10	Y10	Z10	X11	Y11	Z11	X12	Y12	Z12	X13	Y13	Z13	X14	Y14	Z14	X15	Y15	Z15	X16	Y16	Z16	X17	Y17	Z17	X18	Y18	Z18	X19	Y19	Z19	X20	Y20	Z20	X21	Y21	Z21	X22	Y22	Z22	X23	Y23	Z23	X24	Y24	Z24	X25	Y25	Z25	X26	Y26	Z26	X27	Y27	Z27	X28	Y28	Z28	X29	Y29	Z29	X30	Y30	Z30	X31	Y31	Z31	X32	Y32	Z32	X33	Y33	Z33	X34	Y34	Z34	X35	Y35	Z35	X36	Y36	Z36

1879	7.51200	0.00000	0.00000	0.00000	-3664.62817	983.43500	344.67386	-3621.38525	626.24921	396.65698	-3636.04932	566.74127	382.61057	-3690.92334	640.65344	379.47668	-3697.82178	580.91864	367.83466	-3666.16895	486.83093	362.91528	-3650.94409	486.51688	253.55147	-3605.51978	310.25598	376.17767	0.00000	0.00000	0.00000	-3663.13354	310.79092	372.96118	0.00000	0.00000	0.00000	-3635.13135	103.44673	338.93454	0.00000	0.00000	0.00000	0.00000	0.00000	0.00000	0.00000	0.00000	0.00000	0.00000	0.00000	0.00000	-3817.43140	583.13513	228.95526	-3468.08276	1014.80719	206.87665	-3640.37085	970.71515	139.46544	0.00000	0.00000	0.00000	0.00000	0.00000	0.00000	-3612.95044	595.81982	96.71181	-3628.43970	534.87836	97.97005	-3626.35693	458.47849	107.40255	0.00000	0.00000	0.00000	-3420.87012	421.11652	132.74100	-3382.90234	391.82614	135.73468	-3454.21777	370.06848	106.69969	-3412.95776	350.28363	112.25267	-3282.57300	267.03641	148.67818	-3298.94727	249.09584	221.06946	-3225.58911	311.71286	197.03302	-3288.26318	117.34475	217.41495	-3310.51440	102.78181	174.55965	-3255.55151	137.06384	121.37785
1880	7.51600	-3477.92554	1032.71448	319.91724	-3669.93384	984.05182	344.87167	-3624.05981	626.84204	396.68265	-3638.36401	567.17694	382.79364	-3693.63647	640.75964	379.62878	-3700.24609	580.99768	368.10187	-3668.05542	486.89902	362.92542	-3651.80737	486.79202	254.22812	-3606.69189	310.49518	376.30820	0.00000	0.00000	0.00000	-3664.54297	310.96310	372.90622	0.00000	0.00000	0.00000	-3635.34229	103.49111	338.88632	0.00000	0.00000	0.00000	0.00000	0.00000	0.00000	0.00000	0.00000	0.00000	0.00000	0.00000	0.00000	-3820.20459	581.55444	229.07616	-3473.22656	1015.98438	207.47742	-3645.67041	972.07654	139.64386	-3796.78613	579.27838	122.84721	0.00000	0.00000	0.00000	0.00000	0.00000	0.00000	0.00000	0.00000	0.00000	-3638.04565	460.38547	107.54582	0.00000	0.00000	0.00000	-3435.36694	421.61981	136.01796	-3394.63281	392.99863	135.98450	-3466.13794	371.44135	106.91151	-3424.93652	351.49973	112.50310	-3294.99854	267.36462	148.88956	-3311.72778	249.54538	221.57027	-3237.30640	311.46140	197.07872	-3302.10791	117.71538	217.38878	-3324.45923	103.76053	174.30745	-3262.95117	138.58142	120.40025
1881	7.52000	-3483.43628	1033.52673	320.49026	-3675.14478	984.61896	345.12885	-3626.65015	627.51129	396.69821	-3640.59131	567.66925	382.99893	-3696.36035	640.87244	379.80655	-3702.61157	581.04980	368.44113	-3669.87451	487.06506	362.94543	-3654.83276	486.98871	254.21053	-3608.15918	310.81555	376.50452	0.00000	0.00000	0.00000	-3665.91089	311.04965	372.80798	0.00000	0.00000	0.00000	-3635.57544	103.58139	338.83932	-3647.83862	116.16827	257.93661	0.00000	0.00000	0.00000	0.00000	0.00000	0.00000	-3674.06714	282.63983	402.40759	0.00000	0.00000	0.00000	-3478.56030	1017.21313	208.13217	-3651.04785	973.52533	139.80374	0.00000	0.00000	0.00000	0.00000	0.00000	0.00000	-3632.64917	599.35840	97.08811	0.00000	0.00000	0.00000	-3633.81348	466.20532	108.04562	-3665.36743	472.35968	220.78436	-3447.53320	422.58780	131.33121	-3406.30688	393.94568	136.20343	-3478.13940	372.66754	107.14684	-3437.01636	352.60202	112.60881	-3307.46558	267.55347	149.09692	-3323.29736	249.71698	221.33064	-3249.01611	311.05283	197.20239	-3315.10620	117.96412	216.69679	-3338.39307	104.46210	174.04781	-3276.65576	138.81017	119.95785
1882	7.52400	0.00000	0.00000	0.00000	-3680.33081	985.26013	345.35815	-3629.17676	628.13086	396.75354	-3642.80249	568.16730	383.19797	-3698.98438	641.01477	379.99121	-3704.84961	581.09937	368.76373	-3671.84692	487.35211	363.10184	-3656.69287	487.40619	254.01418	0.00000	0.00000	0.00000	0.00000	0.00000	0.00000	-3667.32666	311.11774	372.69241	0.00000	0.00000	0.00000	-3635.78467	103.67657	338.81894	-3648.00854	116.27180	257.83887	0.00000	0.00000	0.00000	0.00000	0.00000	0.00000	0.00000	0.00000	0.00000	0.00000	0.00000	0.00000	-3483.93188	1018.59076	208.58687	-3656.32397	974.89990	139.99338	0.00000	0.00000	0.00000	-3644.88477	468.31708	108.37901	0.00000	0.00000	0.00000	0.00000	0.00000	0.00000	0.00000	0.00000	0.00000	-3676.29199	474.74130	221.16125	-3459.15283	423.60516	131.56778	-3417.97778	394.72894	136.40352	-3490.08130	373.83017	107.30290	-3449.10718	353.44214	112.67818	-3320.08228	267.57812	149.27895	-3336.20264	249.81731	221.75952	-3261.26831	310.18295	197.44316	-3329.16479	118.00690	216.70473	-3359.42017	108.84305	174.26520	-3290.41406	138.92783	119.48282
